<svg width="37" height="37" viewBox="0 0 37 37" fill="none" xmlns="http://www.w3.org/2000/svg">
<path d="M13.875 33.9167H23.125C30.8334 33.9167 33.9167 30.8334 33.9167 23.125V13.875C33.9167 6.16671 30.8334 3.08337 23.125 3.08337H13.875C6.16671 3.08337 3.08337 6.16671 3.08337 13.875V23.125C3.08337 30.8334 6.16671 33.9167 13.875 33.9167Z" stroke="#3A3DB6" stroke-width="2" stroke-linecap="round" stroke-linejoin="round"/>
<path d="M23.8958 28.5208C25.5917 28.5208 26.9792 27.1333 26.9792 25.4375V11.5625C26.9792 9.86663 25.5917 8.47913 23.8958 8.47913C22.2 8.47913 20.8125 9.86663 20.8125 11.5625V25.4375C20.8125 27.1333 22.1846 28.5208 23.8958 28.5208Z" stroke="#3A3DB6" stroke-width="2" stroke-linecap="round" stroke-linejoin="round"/>
<path d="M13.1042 28.5209C14.8 28.5209 16.1875 27.1334 16.1875 25.4375V20.0417C16.1875 18.3459 14.8 16.9584 13.1042 16.9584C11.4084 16.9584 10.0209 18.3459 10.0209 20.0417V25.4375C10.0209 27.1334 11.393 28.5209 13.1042 28.5209Z" stroke="#3A3DB6" stroke-width="2" stroke-linecap="round" stroke-linejoin="round"/>
</svg>
