<svg width="37" height="37" viewBox="0 0 37 37" fill="none" xmlns="http://www.w3.org/2000/svg">
<path d="M14.1217 16.758C13.9675 16.7425 13.7825 16.7425 13.6129 16.758C9.94378 16.6346 7.03003 13.6284 7.03003 9.92837C7.03003 6.15129 10.0825 3.08337 13.875 3.08337C17.6521 3.08337 20.72 6.15129 20.72 9.92837C20.7046 13.6284 17.7909 16.6346 14.1217 16.758Z" stroke="#3A3DB6" stroke-width="2" stroke-linecap="round" stroke-linejoin="round"/>
<path d="M25.2987 6.16663C28.2896 6.16663 30.6946 8.58704 30.6946 11.5625C30.6946 14.4762 28.3821 16.8504 25.4992 16.9583C25.3758 16.9429 25.2371 16.9429 25.0983 16.9583" stroke="#3A3DB6" stroke-width="2" stroke-linecap="round" stroke-linejoin="round"/>
<path d="M6.41336 22.4466C2.68253 24.9441 2.68253 29.0141 6.41336 31.4962C10.6529 34.3329 17.6059 34.3329 21.8454 31.4962C25.5763 28.9987 25.5763 24.9287 21.8454 22.4466C17.6213 19.6254 10.6684 19.6254 6.41336 22.4466Z" stroke="#3A3DB6" stroke-width="2" stroke-linecap="round" stroke-linejoin="round"/>
<path d="M28.2742 30.8334C29.3842 30.6021 30.4325 30.155 31.2958 29.4921C33.7008 27.6884 33.7008 24.713 31.2958 22.9092C30.4479 22.2617 29.415 21.83 28.3204 21.5834" stroke="#3A3DB6" stroke-width="2" stroke-linecap="round" stroke-linejoin="round"/>
</svg>
